<!-- icon666.com - MILLIONS vector ICONS FREE --><svg clip-rule="evenodd" fill-rule="evenodd" image-rendering="optimizeQuality" shape-rendering="geometricPrecision" text-rendering="geometricPrecision" viewBox="0 0 43.3492 43.3492" xmlns="http://www.w3.org/2000/svg"><g id="Layer_x0020_1"><g id="_348805856"><path id="_348806456" d="m30.2676 18.7932.0001 5.7625 12.3211 6.2771v-18.317z" fill="#eceff1"></path><path id="_348806912" d="m18.2031 24.1505c-.0036 0-.0072-.0001-.0108-.0002.0036.0001.0072.0002.0108.0002zm4.631-.3803v-2.0957-2.0956c0-.2101.1703-.3802.3802-.3802l2.7855-.0001c.211 0 .3802.1703.3802.3803.0002.2098-.1693.3802-.3802.3802l-2.4051-.0001v1.3353l1.9219-.0001c.2101 0 .3802.1704.3802.3803.0001.2099-.1703.3803-.3802.3801h-1.9219v1.3352h2.4051c.211 0 .3802.1704.3802.3804.0002.2098-.1693.3803-.3802.3803h-2.7853c-.2099 0-.3804-.1703-.3804-.3803zm-6.6422-4.0516c-.0773-.1952.0177-.416.2138-.4933.1953-.0773.4159.0185.4931.2137l1.3042 3.2977-.3536.8936c-.037.0936-.0342.193 0 .2797zm-12.9639-8.9618c-1.3604 0-2.4676 1.1071-2.4676 2.468l.0002 16.8993c0 1.3608 1.1069 2.4682 2.4674 2.4682l23.8105-.0001c1.3618 0 2.4686-1.1071 2.4686-2.4679v-5.3171c-.0006-.0121-.0006-.0243 0-.0365v-6.1936c-.0005-.0115-.0005-.023 0-.0345v-5.3179c0-1.3609-1.107-2.4679-2.4686-2.4679zm14.6214 13.1532c.0405.1017.1196.1765.2139.2137-.1016-.0402-.1764-.1195-.2139-.2137zm-6.0502-4.7113 1.3923-.0001c.2101 0 .3802.1703.3802.3803.0001.2098-.1703.3802-.3802.3801h-1.012l.0001 3.4308h1.0119c.2101 0 .3802.1704.3802.3803.0001.2099-.1703.3803-.3802.3801h-1.379c-.0044.0002-.0088.0003-.0133.0003-.0044 0-.0088-.0001-.0132-.0003h-1.3799c-.2099 0-.3803-.17-.3803-.3801s.1703-.3802.3802-.3802l1.013-.0001.0001-3.4308h-1.013c-.2099 0-.3803-.1701-.3803-.3801 0-.2101.1703-.3802.3802-.3802zm-7.1522 4.1911h2.4053c.211 0 .3801.1704.3801.3804 0 .2098-.1693.3803-.3801.3803h-2.7854c-.2101 0-.3804-.1703-.3804-.3803l.0001-4.1913c0-.2101.1702-.3802.3801-.3802.2101-.0001.3803.1702.3803.3802z" fill="#fc6286" style="fill: rgb(219, 6, 55);"></path><g><path id="_348806624" d="m42.9691 31.8336c-.0594 0-.118-.0137-.1724-.0414l-13.0826-6.665c-.1872-.0953-.2615-.3242-.1654-.5112.0952-.1873.3238-.2616.511-.1663l12.5291 6.3831v-18.317l-12.5291 6.3833c-.1872.0954-.4159.0211-.511-.1661-.0959-.1872-.0218-.4162.1654-.5114l13.0826-6.665c.1178-.0601.2584-.0546.3713.0147.1131.0689.1812.1918.1812.3242v19.5578c0 .1323-.0683.2553-.1812.3243-.0612.0371-.1297.0561-.1989.056z" fill="#000000"></path><path id="_348806648" d="m3.228 10.7568c-1.3604 0-2.4676 1.1071-2.4676 2.468l.0002 16.8993c0 1.3608 1.1069 2.4682 2.4674 2.4682l23.8105-.0001c1.3618 0 2.4686-1.1071 2.4686-2.4679v-16.8996c0-1.3609-1.107-2.4679-2.4686-2.4679zm23.8105 22.5958h-23.8105c-1.7792 0-3.2281-1.4481-3.2281-3.2283v-16.8996c0-1.7801 1.4487-3.2283 3.2281-3.2283h23.8105c1.7806 0 3.2291 1.4483 3.2291 3.2284l.0001 16.8993c0 1.7804-1.4488 3.2287-3.2292 3.2285z" fill="#000000"></path><path id="_348806384" d="m7.0523 24.1505h-2.7854c-.2101 0-.3804-.1703-.3804-.3803l.0001-4.1913c0-.2101.1702-.3802.3801-.3802.2101-.0001.3803.1702.3803.3803v3.8108h2.4053c.211 0 .3801.1704.3801.3804 0 .2098-.1693.3803-.3801.3803z" fill="#000000"></path><path id="_348806816" d="m11.7992 24.1505c-.2098 0-.3802-.1703-.3802-.3803l.0002-4.1913c0-.2101.1701-.3802.38-.3802.2101-.0001.3803.1702.3803.3803v4.1911c0 .2099-.1703.3804-.3803.3804z" fill="#000000"></path><path id="_348806576" d="m13.1915 19.959h-2.7854c-.2099 0-.3803-.1701-.3803-.38 0-.2102.1703-.3803.3802-.3803l2.7855-.0001c.2101 0 .3802.1703.3802.3804.0001.2097-.1703.3801-.3802.38zm0 4.1912h-2.7854c-.2099 0-.3803-.17-.3803-.3801s.1703-.3802.3802-.3802l2.7855-.0001c.2101 0 .3802.1704.3802.3803.0001.2099-.1703.3803-.3802.3801z" fill="#000000"></path><path id="_348806000" d="m18.2031 24.1505c-.1515 0-.2943-.0912-.3537-.2405l-1.6575-4.1914c-.0773-.1952.0177-.416.2138-.4933.1952-.0773.4159.0185.4931.2137l1.6576 4.1912c.0774.1952-.0178.4163-.2129.4935-.0464.0181-.094.0268-.1404.0268z" fill="#000000"></path><path id="_348805736" d="m18.2031 24.1505c-.0466 0-.0942-.0087-.1398-.0268-.1951-.0773-.2912-.2981-.2139-.4934l1.6586-4.1914c.0773-.1953.2981-.2908.4931-.2136.1951.0771.2912.2982.2139.4935l-1.6586 4.191c-.0583.1495-.202.2407-.3533.2407z" fill="#000000"></path><path id="_348805664" d="m25.5166 22.0546h-2.3022c-.2098 0-.3803-.1701-.3803-.3801 0-.2101.1703-.3802.3802-.3802l2.3023-.0001c.2101 0 .3802.1704.3802.3803.0001.2099-.1703.3803-.3802.3801z" fill="#000000"></path><path id="_348806312" d="m25.9998 24.1505h-2.7854c-.2098 0-.3803-.1703-.3803-.3803v-4.1913c0-.2101.1703-.3802.3802-.3802l2.7855-.0001c.211 0 .3802.1703.3802.3804.0002.2097-.1693.3801-.3802.3801l-2.405-.0001v3.4308h2.405c.211 0 .3802.1704.3802.3804.0002.2098-.1693.3803-.3802.3803z" fill="#000000"></path></g></g></g></svg>