<!-- icon666.com - MILLIONS vector ICONS FREE --><svg xmlns="http://www.w3.org/2000/svg" viewBox="0 0 64 64"><title>05 Holy Qur&amp;apos;an</title><g id="_05_Holy_Qur_an" data-name="05 Holy Qur'an"><path d="M56,16.591l-4.22-5.22a1,1,0,0,0-1.4-.152c-2.028,1.623-4.992,2.557-8.13,3.546-3.8,1.2-7.71,2.429-10.245,5.052-2.535-2.623-6.448-3.856-10.245-5.052-3.138-.989-6.1-1.923-8.13-3.546a1,1,0,0,0-1.4.152L8,16.591a1,1,0,0,0,.321,1.518L31.081,29.778a2,2,0,0,0,1.835,0l22.76-11.671A1,1,0,0,0,56,16.591Z" style="fill:#e1e1e3"></path><path d="M32,30a1,1,0,0,1-1-1V25a1,1,0,0,1,2,0v4A1,1,0,0,1,32,30Z" style="fill:#c8c6cc"></path><path d="M54.8,21.4a1,1,0,0,0-1.256-.29L32,32.158,10.456,21.11A1,1,0,0,0,9.2,21.4a5.215,5.215,0,0,0,1.793,7.771l13.416,6.88-5.417,2.778A5.216,5.216,0,0,0,17.2,46.6a1,1,0,0,0,1.256.29L32,39.944,45.544,46.89A1,1,0,0,0,46.8,46.6a5.215,5.215,0,0,0-1.793-7.771l-5.416-2.778,13.416-6.88h0A5.216,5.216,0,0,0,54.8,21.4Z" style="fill:#e67500"></path><path d="M59.636,15.361a2.823,2.823,0,0,0-2.786-.1L32,28,7.15,15.257a2.85,2.85,0,1,0-2.6,5.072L31.087,33.938a2,2,0,0,0,1.825,0L59.451,20.329a2.85,2.85,0,0,0,.185-4.968Z" style="fill:#00bb64"></path><path d="M60.9,51.553l-1.724-3.447A1.987,1.987,0,0,0,57.382,47H56a2,2,0,0,0-2-2H10a2,2,0,0,0-2,2H6.618a1.988,1.988,0,0,0-1.789,1.1L3.105,51.553A1,1,0,0,0,4,53H60a1,1,0,0,0,.9-1.447Z" style="fill:#78777f"></path><path d="M59.171,48.106A1.987,1.987,0,0,0,57.382,47H56a2,2,0,0,0-2-2H47.611a5.207,5.207,0,0,0-2.6-6.171l-5.416-2.778,13.416-6.88h0a5.214,5.214,0,0,0,2.384-6.761l4.059-2.081a2.85,2.85,0,0,0-2.6-5.072l-1.365.7-3.708-4.586a1,1,0,0,0-1.4-.152c-2.028,1.623-4.992,2.557-8.13,3.546-3.8,1.2-7.71,2.429-10.245,5.052-2.535-2.623-6.448-3.856-10.245-5.052-3.138-.989-6.1-1.923-8.13-3.546a1,1,0,0,0-1.4.152L8.515,15.957l-1.365-.7a2.85,2.85,0,1,0-2.6,5.072L8.608,22.41a5.213,5.213,0,0,0,2.385,6.761l13.416,6.88-5.417,2.778A5.208,5.208,0,0,0,16.389,45H10a2,2,0,0,0-2,2H6.618a1.988,1.988,0,0,0-1.789,1.1L3.105,51.553A1,1,0,0,0,4,53H60a1,1,0,0,0,.9-1.447ZM13.18,13.368a31.766,31.766,0,0,0,7.974,3.3c3.922,1.236,7.977,2.514,10.045,5.282a1.035,1.035,0,0,0,1.6,0c2.068-2.768,6.123-4.046,10.045-5.282a31.766,31.766,0,0,0,7.974-3.3l2.846,3.521L39.793,24,33,27.486V25a1,1,0,0,0-2,0v2.487l-20.666-10.6ZM5,17.792a.838.838,0,0,1,.406-.725.885.885,0,0,1,.447-.127.833.833,0,0,1,.385.1L8.313,18.1l.011.009L31.081,29.778a2,2,0,0,0,1.835,0l22.76-11.671.011-.009,2.075-1.064a.85.85,0,0,1,.776,1.513L32,32.158,5.463,18.549A.848.848,0,0,1,5,17.792ZM18.239,42.747a3.212,3.212,0,0,1,1.666-2.139l5.417-2.777a2,2,0,0,0,0-3.559l-13.415-6.88a3.217,3.217,0,0,1-1.515-4.068l20.7,10.614a2,2,0,0,0,1.825,0l20.7-10.614A3.217,3.217,0,0,1,52.1,27.392l-13.417,6.88a2,2,0,0,0,0,3.559l5.415,2.777a3.217,3.217,0,0,1,1.515,4.068l-12.7-6.511a2,2,0,0,0-1.825,0l-12.7,6.511A3.215,3.215,0,0,1,18.239,42.747ZM32,39.944,41.859,45H22.141ZM5.618,51l1-2H9a1,1,0,0,0,1-1V47H54v1a1,1,0,0,0,1,1h2.382l1,2Z" style="fill:#703700"></path></g></svg>