<!-- icon666.com - MILLIONS vector ICONS FREE --><svg viewBox="0 0 512 512" xmlns="http://www.w3.org/2000/svg"><path d="m512 256c0 141.386719-114.613281 256-256 256s-256-114.613281-256-256 114.613281-256 256-256 256 114.613281 256 256zm0 0" fill="#57545c"></path><path d="m512 256c0-9.554688-.539062-18.980469-1.558594-28.265625l-43.441406-43.4375h-30v52.453125l-19-18.214844h-12.332031l-36.667969-36.210937h-23l-26-26.191407h-9l-40-40.175781h-30v58.960938l-19-18.785157h-30v44.679688s-19.125-18.789062-19-18.488281h-30v54.300781l-19-18.089844h-15l-34-34.238281h-30v143.40625l182.734375 182.738281c9.285156 1.019532 18.710937 1.558594 28.265625 1.558594 141.386719 0 256-114.613281 256-256zm0 0" fill="#3a383f"></path><path d="m241 115.957031h30v280.085938h-30zm0 0" fill="#fff5ca"></path><path d="m256 115.960938h15v280.078124h-15zm0 0" fill="#ffed93"></path><path d="m192 156.132812h30v199.734376h-30zm0 0" fill="#ffe767"></path><path d="m290 156.132812h30v199.734376h-30zm0 0" fill="#ffdc34"></path><path d="m143 182.324219h30v147.351562h-30zm0 0" fill="#ffd000"></path><path d="m339 182.324219h30v147.351562h-30zm0 0" fill="#ffc100"></path><path d="m94 218.535156h30v74.929688h-30zm0 0" fill="#ffb400"></path><path d="m388 218.535156h30v74.929688h-30zm0 0" fill="#ff9b00"></path><path d="m45 184.296875h30v143.40625h-30zm0 0" fill="#e91d81"></path><path d="m437 184.296875h30v143.40625h-30zm0 0" fill="#ff7600"></path></svg>