<!-- icon666.com - MILLIONS vector ICONS FREE --><svg id="Layer_1" viewBox="0 0 64 64" xmlns="http://www.w3.org/2000/svg" data-name="Layer 1"><circle cx="34" cy="30" fill="#f0cf65" r="21"></circle><circle cx="16" cy="48" fill="#726e60" r="15"></circle><circle cx="16" cy="48" fill="#ddedaa" r="11"></circle><path d="m26.68 37.49a3 3 0 1 0 -4.59-3.2" fill="#f17105"></path><path d="m5.32 37.49a3 3 0 1 1 4.59-3.2" fill="#f17105"></path><path d="m16.71 48.71a1 1 0 0 0 .29-.71v-7h-2v6.59l-2.71 2.7 1.42 1.42z"></path><path d="m52 30a18 18 0 0 0 -18-18v2a16 16 0 0 1 16 16z"></path><path d="m33 0h2v6h-2z"></path><path d="m33 54h2v6h-2z"></path><path d="m58 29h6v2h-6z"></path><path d="m50.09 9.91h6v2h-6z" transform="matrix(.707 -.707 .707 .707 7.84 40.74)"></path><path d="m52.09 46.09h2v6h-2z" transform="matrix(.707 -.707 .707 .707 -19.16 51.92)"></path><path d="m13.91 7.91h2v6h-2z" transform="matrix(.707 -.707 .707 .707 -3.35 13.74)"></path><path d="m16 60a12 12 0 1 0 -12-12 12 12 0 0 0 12 12zm0-22a10 10 0 1 1 -10 10 10 10 0 0 1 10-10z"></path><path d="m16 64a16 16 0 0 0 15.51-12.16 21 21 0 0 0 2.49.16 22 22 0 1 0 -21.37-27.24l1.94.48a20 20 0 1 1 19.43 24.76 19 19 0 0 1 -2.12-.13 16.47 16.47 0 0 0 .12-1.87 15.89 15.89 0 0 0 -3.92-10.46 3.94 3.94 0 0 0 .92-2.54 4 4 0 0 0 -7.46-2 15.9 15.9 0 0 0 -4.54-1v-2h2v-2h-6v2h2v2a15.9 15.9 0 0 0 -4.54 1 4 4 0 0 0 -7.46 2 3.94 3.94 0 0 0 .92 2.54 16 16 0 0 0 12.08 26.46zm9-31a2 2 0 0 1 1.66 3.1 16.11 16.11 0 0 0 -3.27-2.28 2 2 0 0 1 1.61-.82zm-18 0a2 2 0 0 1 1.61.82 16.11 16.11 0 0 0 -3.27 2.28 2 2 0 0 1 1.66-3.1zm9 1a14 14 0 1 1 -14 14 14 14 0 0 1 14-14z"></path></svg>