<!-- icon666.com - MILLIONS vector ICONS FREE --><svg id="Layer_2" viewBox="0 0 64 64" xmlns="http://www.w3.org/2000/svg" xmlns:xlink="http://www.w3.org/1999/xlink" data-name="Layer 2"><linearGradient id="linear-gradient" gradientUnits="userSpaceOnUse" x1="36.337" x2="36.337" y1="8.105" y2="16.105"><stop offset="0" stop-color="#42bfff"></stop><stop offset="1" stop-color="#1174ac"></stop></linearGradient><linearGradient id="linear-gradient-2" x1="31.375" x2="31.375" xlink:href="#linear-gradient" y1="11.472" y2="19.472"></linearGradient><linearGradient id="linear-gradient-3" x1="27.361" x2="27.361" xlink:href="#linear-gradient" y1="15.888" y2="23.888"></linearGradient><linearGradient id="linear-gradient-4" x1="22.207" x2="22.207" xlink:href="#linear-gradient" y1="19.013" y2="27.013"></linearGradient><linearGradient id="linear-gradient-5" x1="16.478" x2="16.478" xlink:href="#linear-gradient" y1="20.704" y2="28.704"></linearGradient><linearGradient id="linear-gradient-6" x1="11.626" x2="11.626" xlink:href="#linear-gradient" y1="24.256" y2="32.256"></linearGradient><linearGradient id="linear-gradient-7" x1="8" x2="8" xlink:href="#linear-gradient" y1="29" y2="37"></linearGradient><linearGradient id="linear-gradient-8" x1="7" x2="7" xlink:href="#linear-gradient" y1="35" y2="43"></linearGradient><linearGradient id="linear-gradient-9" x1="7" x2="7" xlink:href="#linear-gradient" y1="41.027" y2="49.027"></linearGradient><linearGradient id="linear-gradient-10" x1="8.626" x2="8.626" xlink:href="#linear-gradient" y1="46.8" y2="54.8"></linearGradient><linearGradient id="linear-gradient-11" x1="8.777" x2="16.777" xlink:href="#linear-gradient" y1="55.139" y2="55.139"></linearGradient><linearGradient id="linear-gradient-12" x1="14.482" x2="22.482" xlink:href="#linear-gradient" y1="57.02" y2="57.02"></linearGradient><linearGradient id="linear-gradient-13" x1="20.482" x2="28.482" xlink:href="#linear-gradient" y1="57.02" y2="57.02"></linearGradient><linearGradient id="linear-gradient-14" x1="26.429" x2="34.429" xlink:href="#linear-gradient" y1="56.632" y2="56.632"></linearGradient><linearGradient id="linear-gradient-15" x1="32.159" x2="40.159" xlink:href="#linear-gradient" y1="54.874" y2="54.874"></linearGradient><linearGradient id="linear-gradient-16" x1="38.534" x2="44.189" xlink:href="#linear-gradient" y1="48.998" y2="54.652"></linearGradient><linearGradient id="linear-gradient-17" x1="44.452" x2="44.452" xlink:href="#linear-gradient" y1="42.638" y2="50.638"></linearGradient><linearGradient id="linear-gradient-18" x1="46.415" x2="46.415" xlink:href="#linear-gradient" y1="36.964" y2="44.964"></linearGradient><linearGradient id="linear-gradient-19" x1="47.967" x2="47.967" xlink:href="#linear-gradient" y1="31.179" y2="39.179"></linearGradient><linearGradient id="linear-gradient-20" x1="47.875" x2="47.875" xlink:href="#linear-gradient" y1="25.179" y2="33.179"></linearGradient><linearGradient id="linear-gradient-21" x1="47.012" x2="47.012" xlink:href="#linear-gradient" y1="19.301" y2="27.301"></linearGradient><linearGradient id="linear-gradient-22" x1="45.511" x2="45.511" xlink:href="#linear-gradient" y1="13.535" y2="21.535"></linearGradient><linearGradient id="linear-gradient-23" gradientUnits="userSpaceOnUse" x1="55.373" x2="55.373" y1="4.741" y2="12.607"><stop offset="0" stop-color="#ffc033"></stop><stop offset="1" stop-color="#ef8e2e"></stop></linearGradient><linearGradient id="linear-gradient-24" gradientUnits="userSpaceOnUse" x1="47.452" x2="47.452" y1="4.861" y2="12.861"><stop offset="0" stop-color="#0a6ea1"></stop><stop offset="1" stop-color="#00324e"></stop></linearGradient><linearGradient id="linear-gradient-25" x1="42.337" x2="42.337" xlink:href="#linear-gradient" y1="8.472" y2="16.472"></linearGradient><circle cx="36.337" cy="12.105" fill="url(#linear-gradient)" r="4"></circle><circle cx="31.375" cy="15.472" fill="url(#linear-gradient-2)" r="4"></circle><circle cx="27.361" cy="19.888" fill="url(#linear-gradient-3)" r="4"></circle><circle cx="22.207" cy="23.013" fill="url(#linear-gradient-4)" r="4"></circle><circle cx="16.478" cy="24.704" fill="url(#linear-gradient-5)" r="4"></circle><circle cx="11.626" cy="28.256" fill="url(#linear-gradient-6)" r="4"></circle><circle cx="8" cy="33" fill="url(#linear-gradient-7)" r="4"></circle><circle cx="7" cy="39" fill="url(#linear-gradient-8)" r="4"></circle><circle cx="7" cy="45.027" fill="url(#linear-gradient-9)" r="4"></circle><circle cx="8.626" cy="50.8" fill="url(#linear-gradient-10)" r="4"></circle><circle cx="12.777" cy="55.139" fill="url(#linear-gradient-11)" r="4"></circle><circle cx="18.482" cy="57.02" fill="url(#linear-gradient-12)" r="4"></circle><circle cx="24.482" cy="57.02" fill="url(#linear-gradient-13)" r="4"></circle><circle cx="30.429" cy="56.632" fill="url(#linear-gradient-14)" r="4"></circle><circle cx="36.159" cy="54.874" fill="url(#linear-gradient-15)" r="4"></circle><circle cx="41.361" cy="51.825" fill="url(#linear-gradient-16)" r="4"></circle><circle cx="44.452" cy="46.638" fill="url(#linear-gradient-17)" r="4"></circle><circle cx="46.415" cy="40.964" fill="url(#linear-gradient-18)" r="4"></circle><circle cx="47.967" cy="35.179" fill="url(#linear-gradient-19)" r="4"></circle><circle cx="47.875" cy="29.179" fill="url(#linear-gradient-20)" r="4"></circle><circle cx="47.012" cy="23.301" fill="url(#linear-gradient-21)" r="4"></circle><circle cx="45.511" cy="17.535" fill="url(#linear-gradient-22)" r="4"></circle><path d="m61.06 8.958c-.1719-.3945-1.7588-3.8613-4.6084-4.1836-3.2061-.3574-6.3672 2.2891-6.4991 2.4024a.998.998 0 0 0 -.3212.99c.042.1782 1.08 4.3731 4.6 4.44.0273.0005.0537.0005.08.0005a3.125 3.125 0 0 0 2.6827-1.4726 2.3509 2.3509 0 0 1 .6816-.6856 2.4155 2.4155 0 0 1 2.0332-.1914 1 1 0 0 0 1.3516-1.3z" fill="url(#linear-gradient-23)"></path><circle cx="47.452" cy="8.861" fill="url(#linear-gradient-24)" r="4"></circle><circle cx="42.337" cy="12.472" fill="url(#linear-gradient-25)" r="4"></circle></svg>