<?xml version="1.0" encoding="iso-8859-1"?>
<!-- Uploaded to: SVG Repo, www.svgrepo.com, Generator: SVG Repo Mixer Tools -->
<svg version="1.1" id="Layer_1" xmlns="http://www.w3.org/2000/svg" xmlns:xlink="http://www.w3.org/1999/xlink" 
	 viewBox="0 0 512 512" xml:space="preserve">
<g>
	<path style="fill:#E6BA9C;" d="M95.546,174.375L95.546,174.375c-15.774,0-28.561,12.787-28.561,28.561H33.04v94.554h33.946v15.192
		l57.122-6.618V202.936C124.107,187.162,111.32,174.375,95.546,174.375z"/>
	<rect x="124.104" y="202.933" style="fill:#E6BA9C;" width="33.946" height="94.553"/>
</g>
<path style="fill:#D9AF93;" d="M181.228,306.063V202.935c0-15.773-12.787-28.561-28.561-28.561l0,0
	c-15.774,0-28.561,12.787-28.561,28.561v109.746L181.228,306.063z"/>
<path style="fill:#F2C4A4;" d="M204.806,333.569l-21.016-9.7L78.02,268.698c-6.769-3.531-11.014-10.533-11.014-18.168v-47.594
	c0-15.773-12.787-28.561-28.561-28.561l0,0c-15.774,0-28.561,12.787-28.561,28.561v66.634c0,16.254,7.388,31.626,20.081,41.78
	l57.986,31.731c13.457,10.766,21.29,27.064,21.29,44.297v116.538h114.953V358.072L204.806,333.569z"/>
<g>
	<path style="fill:#E6BA9C;" d="M416.452,174.375L416.452,174.375c15.774,0,28.561,12.787,28.561,28.561h33.946v94.554h-33.946
		v15.192l-57.122-6.618V202.936C387.891,187.162,400.678,174.375,416.452,174.375z"/>
	<rect x="353.949" y="202.933" style="fill:#E6BA9C;" width="33.946" height="94.553"/>
</g>
<path style="fill:#D9AF93;" d="M330.77,306.063V202.935c0-15.773,12.787-28.561,28.561-28.561l0,0
	c15.774,0,28.561,12.787,28.561,28.561v109.746L330.77,306.063z"/>
<path style="fill:#F2C4A4;" d="M307.194,333.569l21.016-9.7l105.769-55.171c6.769-3.531,11.014-10.533,11.014-18.168v-47.594
	c0-15.773,12.787-28.561,28.561-28.561l0,0c15.774,0,28.561,12.787,28.561,28.561v66.634c0,16.254-7.388,31.626-20.081,41.78
	l-57.986,31.731c-13.457,10.766-21.29,27.064-21.29,44.297v116.538H287.806V358.072L307.194,333.569z"/>
<g>
	<path style="fill:#FFCEAD;" d="M204.715,295.949l-49.257-29.397c-12.628-7.538-28.934-3.546-36.674,8.884
		c-7.985,12.822-3.392,29.96,9.579,37.701l45.253,27.008l50.577,27.563l0.001-37.448
		C224.194,316.19,216.796,303.159,204.715,295.949z"/>
	<path style="fill:#FFCEAD;" d="M307.283,295.949l49.257-29.397c12.628-7.538,28.934-3.546,36.674,8.884
		c7.985,12.822,3.392,29.96-9.579,37.701l-45.253,27.008l-50.577,27.563l-0.001-37.448
		C287.804,316.19,295.203,303.159,307.283,295.949z"/>
</g>
<path d="M79.739,147.018c1.384,0.929,2.949,1.373,4.499,1.373c2.603,0,5.158-1.256,6.718-3.578
	c2.489-3.706,1.501-8.729-2.204-11.217l-43.869-29.459c-3.708-2.49-8.729-1.502-11.217,2.204c-2.489,3.706-1.501,8.729,2.204,11.217
	L79.739,147.018z"/>
<path d="M159.721,86.978c1.386,0,2.789-0.357,4.072-1.106c3.854-2.253,5.153-7.204,2.899-11.058l-26.667-45.621
	c-2.253-3.854-7.205-5.152-11.058-2.899c-3.854,2.253-5.153,7.204-2.899,11.058l26.667,45.621
	C154.239,85.545,156.944,86.978,159.721,86.978z"/>
<path d="M421.042,144.813c1.561,2.323,4.115,3.578,6.718,3.578c1.55,0,3.116-0.445,4.499-1.373l43.871-29.459
	c3.705-2.489,4.693-7.511,2.204-11.217c-2.49-3.705-7.511-4.694-11.217-2.204l-43.871,29.459
	C419.541,136.085,418.554,141.107,421.042,144.813z"/>
<path d="M371.973,29.193l-26.667,45.621c-2.253,3.854-0.955,8.804,2.899,11.058c1.283,0.749,2.686,1.106,4.072,1.106
	c2.778,0,5.483-1.433,6.986-4.005l26.667-45.621c2.253-3.854,0.955-8.804-2.899-11.058
	C379.178,24.042,374.226,25.339,371.973,29.193z"/>
<path d="M256,0c-4.464,0-8.083,3.619-8.083,8.083v50.155c0,4.464,3.619,8.083,8.083,8.083c4.464,0,8.083-3.619,8.083-8.083V8.083
	C264.083,3.619,260.464,0,256,0z"/>
<path d="M473.553,166.291c-11.547,0-21.857,5.375-28.579,13.747c-6.739-8.365-17.048-13.747-28.522-13.747
	c-11.536,0-21.839,5.364-28.561,13.723c-6.722-8.359-17.024-13.723-28.561-13.723c-20.206,0-36.644,16.438-36.644,36.644v74.407
	l-19.546,11.666c-14.445,8.622-23.419,24.429-23.419,41.252l0.001,37.448v136.209c0,4.464,3.619,8.083,8.083,8.083h114.951
	c4.464,0,8.083-3.619,8.083-8.083v-74.689c0-4.464-3.619-8.083-8.083-8.083s-8.083,3.619-8.083,8.083v66.606H295.89V367.706
	l-0.001-37.448c0-11.161,5.954-21.648,15.538-27.369c0,0,23.483-14.015,23.487-14.016l25.772-15.381
	c0.494-0.294,0.998-0.555,1.508-0.8c0.112-0.054,0.224-0.106,0.336-0.157c11.204-5.108,25.094,2.304,26.425,14.719
	c0.801,7.461-3.021,15.097-9.46,18.941l-45.252,27.008c-3.834,2.288-5.086,7.25-2.799,11.084c2.288,3.834,7.25,5.086,11.084,2.799
	l45.252-27.008c1.5-0.896,2.93-1.909,4.282-3.014c0.049-0.04,0.097-0.079,0.146-0.12c6.503-5.35,10.87-12.773,12.413-20.999
	c0.189-1.006,0.349-2.032,0.449-3.05l32.649-17.031c9.474-4.942,15.358-14.649,15.358-25.334v-47.537l0.003-0.131
	c0.04-11.257,9.207-20.404,20.474-20.404c11.292,0,20.478,9.186,20.478,20.478v66.635c0,13.648-6.013,26.381-16.522,35.041
	l-57.342,31.379c-0.412,0.225-0.803,0.486-1.168,0.779c-15.458,12.367-24.324,30.813-24.324,50.61c0,4.464,3.619,8.083,8.083,8.083
	s8.083-3.619,8.083-8.083c0-14.632,6.454-28.281,17.73-37.558l57.344-31.38c0.412-0.225,0.803-0.486,1.168-0.779
	c14.69-11.751,23.115-29.28,23.115-48.092v-66.635C510.198,182.73,493.759,166.291,473.553,166.291z M379.808,255.962
	c-3.065-0.859-6.258-1.305-9.49-1.305c-11.823,0-21.643,7.174-31.465,13.037v-64.758c0-11.292,9.186-20.478,20.478-20.478
	c11.292,0,20.478,9.186,20.478,20.478V255.962z M436.909,202.935v47.595c0,4.64-2.555,8.855-6.669,11.001l-27.676,14.437
	c0.152-0.08-1.906-3.813-2.09-4.125c-1.28-2.162-2.787-4.2-4.5-6.04v-62.868c0-11.292,9.186-20.478,20.478-20.478
	c11.079,0,20.229,8.972,20.465,20.032C436.913,202.639,436.909,202.786,436.909,202.935z"/>
<path d="M208.858,289.007l-19.545-11.665v-74.407c0-20.206-16.438-36.644-36.644-36.644c-11.536,0-21.839,5.364-28.561,13.723
	c-6.722-8.359-17.024-13.723-28.561-13.723c-11.474,0-21.783,5.382-28.522,13.747c-6.722-8.372-17.032-13.747-28.579-13.747
	c-20.206,0-36.644,16.438-36.644,36.644v66.635c0,18.811,8.425,36.34,23.115,48.092c0.366,0.293,0.758,0.554,1.168,0.779
	l57.344,31.38c11.276,9.276,17.729,22.925,17.729,37.558c0,4.464,3.619,8.083,8.083,8.083s8.083-3.619,8.083-8.083
	c0-19.796-8.866-38.244-24.324-50.61c-0.366-0.293-0.758-0.554-1.168-0.779L34.49,304.612
	c-10.508-8.661-16.522-21.394-16.522-35.041v-66.635c0-11.292,9.186-20.478,20.478-20.478c11.228,0,20.367,9.087,20.468,20.291
	l0.01,47.782c0,10.685,5.885,20.392,15.358,25.334l32.649,17.031c0.022,0.216,0.057,0.427,0.082,0.641
	c1.266,10.832,7.841,20.95,17.208,26.541l45.252,27.008c3.834,2.288,8.796,1.034,11.084-2.799c2.288-3.834,1.035-8.796-2.799-11.084
	c0,0-45.245-27.002-45.252-27.008c-5.326-3.176-8.909-8.964-9.489-15.123c-0.674-7.164,3.131-13.98,9.301-17.561
	c15.211-8.828,31.82,9.051,44.772,15.364l23.482,14.014c9.585,5.721,15.538,16.209,15.538,27.37l-0.001,37.448v128.126h-98.785
	v-73.583c0-4.464-3.619-8.083-8.083-8.083c-4.464,0-8.083,3.619-8.083,8.083v81.667c0,4.464,3.619,8.083,8.083,8.083h114.951
	c4.464,0,8.083-3.619,8.083-8.083V367.706l0.001-37.447C232.278,313.436,223.303,297.629,208.858,289.007z M116.023,265.803
	c0,0.105-0.39,0.427-0.468,0.514c-2.544,2.856-4.632,6.126-6.122,9.65l-27.676-14.437c-4.114-2.146-6.669-6.361-6.669-11.001
	v-47.595c0-0.148-0.003-0.293-0.009-0.436c0.232-11.064,9.382-20.041,20.466-20.041c11.292,0,20.478,9.186,20.478,20.478
	C116.023,202.935,116.023,265.803,116.023,265.803z M173.145,267.694l-13.544-8.083c-5.38-3.212-11.656-4.953-17.921-4.953
	c-3.232,0-6.423,0.446-9.49,1.305v-53.027c0-11.292,9.186-20.478,20.478-20.478s20.478,9.186,20.478,20.478L173.145,267.694
	L173.145,267.694z"/>
</svg>